<svg width="29" height="29" viewBox="0 0 29 29" fill="none" xmlns="http://www.w3.org/2000/svg">
<path d="M13.1818 11.2046V12.5228H11.8636V14.5H13.1818V20.4318H15.8181V14.5H17.5713L17.7954 12.5228H15.8181V11.3693C15.8181 10.8355 15.8709 10.5521 16.6947 10.5521H17.7954V8.56818H16.0291C13.92 8.56823 13.1818 9.55684 13.1818 11.2046Z" fill="black"/>
<path d="M14.5 0C6.49187 0 0 6.49187 0 14.5C0 22.5081 6.49187 29 14.5 29C22.5081 29 29 22.5081 29 14.5C29 6.49187 22.5081 0 14.5 0ZM14.5 27.6818C7.21987 27.6818 1.3182 21.7801 1.3182 14.5C1.3182 7.21987 7.21987 1.3182 14.5 1.3182C21.7801 1.3182 27.6818 7.21987 27.6818 14.5C27.6818 21.7801 21.7801 27.6818 14.5 27.6818Z" fill="black"/>
</svg>

