<svg width="29" height="29" viewBox="0 0 29 29" fill="none" xmlns="http://www.w3.org/2000/svg">
<path d="M14.5 0C6.49187 0 0 6.49187 0 14.5C0 22.5081 6.49187 29 14.5 29C22.5081 29 29 22.5081 29 14.5C29 6.49187 22.5081 0 14.5 0ZM14.5 27.6818C7.21987 27.6818 1.3182 21.7801 1.3182 14.5C1.3182 7.21987 7.21987 1.3182 14.5 1.3182C21.7801 1.3182 27.6818 7.21987 27.6818 14.5C27.6818 21.7801 21.7801 27.6818 14.5 27.6818Z" fill="black"/>
<path d="M18.4545 7.90906H10.5455C9.08947 7.90906 7.90913 9.08939 7.90913 10.5454V18.4545C7.90913 19.9105 9.08947 21.0908 10.5455 21.0908H18.4545C19.9105 21.0908 21.0909 19.9105 21.0909 18.4545V10.5454C21.0909 9.08939 19.9106 7.90906 18.4545 7.90906ZM17.1363 9.88632H19.1136V11.8636H17.1363V9.88632ZM14.5 11.8636C15.956 11.8636 17.1363 13.044 17.1363 14.5C17.1363 15.956 15.956 17.1363 14.5 17.1363C13.044 17.1363 11.8637 15.956 11.8637 14.5C11.8637 13.044 13.044 11.8636 14.5 11.8636ZM19.7727 18.4545C19.7727 19.1825 19.1825 19.7727 18.4545 19.7727H10.5455C9.81747 19.7727 9.22727 19.1825 9.22727 18.4545V13.8409H10.6113C10.2155 15.9887 11.6358 18.0508 13.7837 18.4466C15.9315 18.8425 17.9936 17.4222 18.3895 15.2743C18.4365 15.019 18.4583 14.7596 18.4545 14.5C18.4513 14.2788 18.4292 14.0584 18.3886 13.8409H19.7727V18.4545H19.7727Z" fill="black"/>
</svg>

