<svg width="26" height="12" viewBox="0 0 26 12" fill="none" xmlns="http://www.w3.org/2000/svg">
<path d="M0.255 1.2H1.095L1.245 8.235C2.095 7.145 2.75 6.035 3.21 4.905C3.67 3.775 3.96 2.54 4.08 1.2H5.415C5.285 2.47 4.985 3.615 4.515 4.635C4.045 5.655 3.495 6.565 2.865 7.365C3.145 7.445 3.405 7.6 3.645 7.83C3.895 8.05 4.11 8.33 4.29 8.67C4.47 9 4.61 9.385 4.71 9.825C4.81 10.265 4.86 10.74 4.86 11.25H3.645C3.645 10.72 3.625 10.265 3.585 9.885C3.555 9.495 3.495 9.165 3.405 8.895C3.315 8.625 3.19 8.41 3.03 8.25C2.88 8.08 2.69 7.955 2.46 7.875C2.26 8.105 2.06 8.325 1.86 8.535C1.67 8.745 1.475 8.94 1.275 9.12L1.32 11.25H0L0.255 1.2Z" fill="black"/>
<path d="M9.23133 3.285C9.59133 3.285 9.92633 3.45 10.2363 3.78C10.5563 4.1 10.8313 4.525 11.0613 5.055C11.3013 5.575 11.4863 6.17 11.6163 6.84C11.7463 7.5 11.8113 8.17 11.8113 8.85C11.8113 9.42 11.7413 9.875 11.6013 10.215C11.4713 10.555 11.2863 10.82 11.0463 11.01C10.8163 11.2 10.5413 11.325 10.2213 11.385C9.91133 11.445 9.58133 11.475 9.23133 11.475C8.88133 11.475 8.55633 11.445 8.25633 11.385C7.95633 11.335 7.69633 11.23 7.47633 11.07C7.25633 10.91 7.08133 10.69 6.95133 10.41C6.83133 10.12 6.77133 9.75 6.77133 9.3C6.77133 8.93 6.85133 8.6 7.01133 8.31C7.17133 8.02 7.38633 7.78 7.65633 7.59C7.92633 7.39 8.23633 7.24 8.58633 7.14C8.94633 7.03 9.32133 6.975 9.71133 6.975C9.95133 6.975 10.2113 7 10.4913 7.05C10.4413 6.62 10.3713 6.215 10.2813 5.835C10.2013 5.455 10.1063 5.125 9.99633 4.845C9.88633 4.555 9.76633 4.33 9.63633 4.17C9.50633 4 9.37133 3.915 9.23133 3.915C9.04133 3.915 8.86133 4.1 8.69133 4.47C8.53133 4.84 8.45133 5.325 8.45133 5.925L7.23633 5.61C7.34633 5.15 7.47133 4.77 7.61133 4.47C7.75133 4.17 7.90633 3.935 8.07633 3.765C8.24633 3.585 8.42633 3.46 8.61633 3.39C8.81633 3.32 9.02133 3.285 9.23133 3.285ZM10.5963 8.85C10.5963 8.47 10.5813 8.09 10.5513 7.71C10.4713 7.7 10.3963 7.695 10.3263 7.695C10.2563 7.685 10.1863 7.68 10.1163 7.68C9.82633 7.68 9.55133 7.71 9.29133 7.77C9.04133 7.83 8.81633 7.925 8.61633 8.055C8.42633 8.185 8.27133 8.355 8.15133 8.565C8.04133 8.765 7.98633 9.01 7.98633 9.3C7.98633 9.62 8.01633 9.885 8.07633 10.095C8.13633 10.295 8.22133 10.455 8.33133 10.575C8.44133 10.685 8.57133 10.76 8.72133 10.8C8.87133 10.84 9.04133 10.86 9.23133 10.86C9.42133 10.86 9.59633 10.84 9.75633 10.8C9.92633 10.75 10.0713 10.655 10.1913 10.515C10.3213 10.365 10.4213 10.16 10.4913 9.9C10.5613 9.64 10.5963 9.29 10.5963 8.85Z" fill="black"/>
<path d="M16.4399 3.96C16.2399 3.96 16.0499 4.16 15.8699 4.56C15.6899 4.95 15.5249 5.48 15.3749 6.15C15.2349 6.82 15.1149 7.595 15.0149 8.475C14.9149 9.355 14.8499 10.28 14.8199 11.25H13.6049L13.7549 0H14.5199L14.5799 7.815C14.6499 7.165 14.7399 6.565 14.8499 6.015C14.9599 5.465 15.0899 4.995 15.2399 4.605C15.3999 4.205 15.5799 3.895 15.7799 3.675C15.9799 3.445 16.2099 3.33 16.4699 3.33C16.8099 3.33 17.1199 3.52 17.3999 3.9C17.6799 4.27 17.9199 4.775 18.1199 5.415C18.3299 6.055 18.4899 6.805 18.5999 7.665C18.7199 8.525 18.7799 9.44 18.7799 10.41C18.7799 10.55 18.7799 10.69 18.7799 10.83C18.7799 10.97 18.7749 11.11 18.7649 11.25H17.5499C17.5599 11.02 17.5649 10.8 17.5649 10.59C17.5649 10.37 17.5649 10.15 17.5649 9.93C17.5649 9.11 17.5349 8.34 17.4749 7.62C17.4249 6.89 17.3499 6.255 17.2499 5.715C17.1599 5.175 17.0449 4.75 16.9049 4.44C16.7649 4.12 16.6099 3.96 16.4399 3.96Z" fill="black"/>
<path d="M23.3979 3.96C23.1979 3.96 23.0079 4.16 22.8279 4.56C22.6479 4.95 22.4829 5.48 22.3329 6.15C22.1929 6.82 22.0729 7.595 21.9729 8.475C21.8729 9.355 21.8079 10.28 21.7779 11.25H20.5629L20.7129 3.51H21.2529L21.5379 7.815C21.6079 7.165 21.6979 6.565 21.8079 6.015C21.9179 5.465 22.0479 4.995 22.1979 4.605C22.3579 4.205 22.5379 3.895 22.7379 3.675C22.9379 3.445 23.1679 3.33 23.4279 3.33C23.7679 3.33 24.0779 3.52 24.3579 3.9C24.6379 4.27 24.8779 4.775 25.0779 5.415C25.2879 6.055 25.4479 6.805 25.5579 7.665C25.6779 8.525 25.7379 9.44 25.7379 10.41C25.7379 10.55 25.7379 10.69 25.7379 10.83C25.7379 10.97 25.7329 11.11 25.7229 11.25H24.5079C24.5179 11.02 24.5229 10.8 24.5229 10.59C24.5229 10.37 24.5229 10.15 24.5229 9.93C24.5229 9.11 24.4929 8.34 24.4329 7.62C24.3829 6.89 24.3079 6.255 24.2079 5.715C24.1179 5.175 24.0029 4.75 23.8629 4.44C23.7229 4.12 23.5679 3.96 23.3979 3.96Z" fill="black"/>
</svg>

