<svg width="73" height="37" viewBox="0 0 73 37" fill="none" xmlns="http://www.w3.org/2000/svg">
<path d="M47.455 13.95H48.295L48.445 20.985C49.295 19.895 49.95 18.785 50.41 17.655C50.87 16.525 51.16 15.29 51.28 13.95H52.615C52.485 15.22 52.185 16.365 51.715 17.385C51.245 18.405 50.695 19.315 50.065 20.115C50.345 20.195 50.605 20.35 50.845 20.58C51.095 20.8 51.31 21.08 51.49 21.42C51.67 21.75 51.81 22.135 51.91 22.575C52.01 23.015 52.06 23.49 52.06 24H50.845C50.845 23.47 50.825 23.015 50.785 22.635C50.755 22.245 50.695 21.915 50.605 21.645C50.515 21.375 50.39 21.16 50.23 21C50.08 20.83 49.89 20.705 49.66 20.625C49.46 20.855 49.26 21.075 49.06 21.285C48.87 21.495 48.675 21.69 48.475 21.87L48.52 24H47.2L47.455 13.95Z" fill="black"/>
<path d="M56.4313 16.035C56.7913 16.035 57.1263 16.2 57.4363 16.53C57.7563 16.85 58.0313 17.275 58.2613 17.805C58.5013 18.325 58.6863 18.92 58.8163 19.59C58.9463 20.25 59.0113 20.92 59.0113 21.6C59.0113 22.17 58.9413 22.625 58.8013 22.965C58.6713 23.305 58.4863 23.57 58.2463 23.76C58.0163 23.95 57.7413 24.075 57.4213 24.135C57.1113 24.195 56.7813 24.225 56.4313 24.225C56.0813 24.225 55.7563 24.195 55.4563 24.135C55.1563 24.085 54.8963 23.98 54.6763 23.82C54.4563 23.66 54.2813 23.44 54.1513 23.16C54.0313 22.87 53.9713 22.5 53.9713 22.05C53.9713 21.68 54.0513 21.35 54.2113 21.06C54.3713 20.77 54.5863 20.53 54.8563 20.34C55.1263 20.14 55.4363 19.99 55.7863 19.89C56.1463 19.78 56.5213 19.725 56.9113 19.725C57.1513 19.725 57.4113 19.75 57.6913 19.8C57.6413 19.37 57.5713 18.965 57.4813 18.585C57.4013 18.205 57.3063 17.875 57.1963 17.595C57.0863 17.305 56.9663 17.08 56.8363 16.92C56.7063 16.75 56.5713 16.665 56.4313 16.665C56.2413 16.665 56.0613 16.85 55.8913 17.22C55.7313 17.59 55.6513 18.075 55.6513 18.675L54.4363 18.36C54.5463 17.9 54.6713 17.52 54.8113 17.22C54.9513 16.92 55.1063 16.685 55.2763 16.515C55.4463 16.335 55.6263 16.21 55.8163 16.14C56.0163 16.07 56.2213 16.035 56.4313 16.035ZM57.7963 21.6C57.7963 21.22 57.7813 20.84 57.7513 20.46C57.6713 20.45 57.5963 20.445 57.5263 20.445C57.4563 20.435 57.3863 20.43 57.3163 20.43C57.0263 20.43 56.7513 20.46 56.4913 20.52C56.2413 20.58 56.0163 20.675 55.8163 20.805C55.6263 20.935 55.4713 21.105 55.3513 21.315C55.2413 21.515 55.1863 21.76 55.1863 22.05C55.1863 22.37 55.2163 22.635 55.2763 22.845C55.3363 23.045 55.4213 23.205 55.5313 23.325C55.6413 23.435 55.7713 23.51 55.9213 23.55C56.0713 23.59 56.2413 23.61 56.4313 23.61C56.6213 23.61 56.7963 23.59 56.9563 23.55C57.1263 23.5 57.2713 23.405 57.3913 23.265C57.5213 23.115 57.6213 22.91 57.6913 22.65C57.7613 22.39 57.7963 22.04 57.7963 21.6Z" fill="black"/>
<path d="M63.6399 16.71C63.4399 16.71 63.2499 16.91 63.0699 17.31C62.8899 17.7 62.7249 18.23 62.5749 18.9C62.4349 19.57 62.3149 20.345 62.2149 21.225C62.1149 22.105 62.0499 23.03 62.0199 24H60.8049L60.9549 12.75H61.7199L61.7799 20.565C61.8499 19.915 61.9399 19.315 62.0499 18.765C62.1599 18.215 62.2899 17.745 62.4399 17.355C62.5999 16.955 62.7799 16.645 62.9799 16.425C63.1799 16.195 63.4099 16.08 63.6699 16.08C64.0099 16.08 64.3199 16.27 64.5999 16.65C64.8799 17.02 65.1199 17.525 65.3199 18.165C65.5299 18.805 65.6899 19.555 65.7999 20.415C65.9199 21.275 65.9799 22.19 65.9799 23.16C65.9799 23.3 65.9799 23.44 65.9799 23.58C65.9799 23.72 65.9749 23.86 65.9649 24H64.7499C64.7599 23.77 64.7649 23.55 64.7649 23.34C64.7649 23.12 64.7649 22.9 64.7649 22.68C64.7649 21.86 64.7349 21.09 64.6749 20.37C64.6249 19.64 64.5499 19.005 64.4499 18.465C64.3599 17.925 64.2449 17.5 64.1049 17.19C63.9649 16.87 63.8099 16.71 63.6399 16.71Z" fill="black"/>
<path d="M70.5979 16.71C70.3979 16.71 70.2079 16.91 70.0279 17.31C69.8479 17.7 69.6829 18.23 69.5329 18.9C69.3929 19.57 69.2729 20.345 69.1729 21.225C69.0729 22.105 69.0079 23.03 68.9779 24H67.7629L67.9129 16.26H68.4529L68.7379 20.565C68.8079 19.915 68.8979 19.315 69.0079 18.765C69.1179 18.215 69.2479 17.745 69.3979 17.355C69.5579 16.955 69.7379 16.645 69.9379 16.425C70.1379 16.195 70.3679 16.08 70.6279 16.08C70.9679 16.08 71.2779 16.27 71.5579 16.65C71.8379 17.02 72.0779 17.525 72.2779 18.165C72.4879 18.805 72.6479 19.555 72.7579 20.415C72.8779 21.275 72.9379 22.19 72.9379 23.16C72.9379 23.3 72.9379 23.44 72.9379 23.58C72.9379 23.72 72.9329 23.86 72.9229 24H71.7079C71.7179 23.77 71.7229 23.55 71.7229 23.34C71.7229 23.12 71.7229 22.9 71.7229 22.68C71.7229 21.86 71.6929 21.09 71.6329 20.37C71.5829 19.64 71.5079 19.005 71.4079 18.465C71.3179 17.925 71.2029 17.5 71.0629 17.19C70.9229 16.87 70.7679 16.71 70.5979 16.71Z" fill="black"/>
<circle cx="18.5" cy="18.5" r="18" fill="white" stroke="black"/>
<path d="M29.127 29.3946C29.4079 27.9708 28.9917 26.2671 28.9376 24.8293C28.8349 22.1134 29.1737 19.4451 28.7635 16.7387C28.7189 16.4437 28.3934 16.2627 28.1242 16.2519C27.8098 16.2393 27.4955 16.2346 27.1813 16.2247C27.1931 16.1259 27.188 16.0234 27.1429 15.9222C25.8995 13.1291 22.7844 11.0457 20.2407 8.99348C20.3445 8.70418 20.4024 8.40838 20.3964 8.13069C20.364 6.60681 18.1372 6.00425 17.2135 7.14244C17.2062 7.15137 17.2005 7.16157 17.1934 7.17075C16.7265 7.44334 16.3629 7.99529 16.2994 8.48259C16.2781 8.64553 16.2887 8.80912 16.3125 8.97091C14.0496 11.4939 12.3759 14.5684 9.54563 16.4984C9.24511 16.5316 8.94472 16.5649 8.6465 16.6079C8.4388 16.6378 8.3312 16.8217 8.3159 17.0156C8.00543 18.0814 8.17883 19.4882 8.06306 20.5833C7.86493 22.4572 7.77364 24.3107 7.7591 26.1966C7.73603 29.213 8.50791 29.7878 11.4354 30.3042C15.0939 30.9496 18.8731 30.0893 22.561 30.3479C23.9862 30.4477 28.0498 31.5176 29.1088 30.1758C29.2892 29.9474 29.2758 29.6123 29.127 29.3946ZM16.8704 10.1133C17.1185 10.3757 17.4298 10.5754 17.7747 10.6695C18.4468 10.8528 19.0779 10.5707 19.5535 10.0902C21.7053 12.1017 23.8825 14.0516 25.9309 16.1887C23.3647 16.1363 20.7985 16.1621 18.231 16.2148C15.9234 16.262 13.5566 16.2114 11.2277 16.354C13.4647 14.7088 15.0243 12.2346 16.8704 10.1133ZM22.5612 29.014C19.4581 28.7691 16.3494 29.2241 13.2425 29.1434C11.673 29.1026 9.29866 29.1301 9.14503 27.1694C9.00669 25.4046 9.08587 23.5932 9.24562 21.8301C9.33321 20.8623 9.80063 18.8693 9.41239 17.6023C14.9537 18.2208 20.8087 17.398 26.3716 17.5167C28.1742 17.5552 27.7076 19.6643 27.6887 21.044C27.6716 22.3064 27.5923 23.5666 27.6134 24.8296C27.6369 26.2304 27.5395 27.9972 27.9664 29.3599C26.2962 29.6626 24.1381 29.1384 22.5612 29.014Z" fill="black"/>
<path d="M25.0611 20.3446C24.5248 19.2956 23.178 19.4307 22.2028 19.3656C18.7416 19.1344 15.4129 19.1052 11.9485 19.398C11.6377 19.4242 11.4148 19.629 11.3986 19.9479C11.2957 21.9699 11.1938 23.9911 11.3249 26.0138C11.3445 26.3166 11.643 26.4005 11.8352 26.281C11.8292 26.356 11.8443 26.4338 11.8896 26.5061C12.6703 27.7536 16.2789 27.2443 17.4653 27.2508C19.6505 27.2628 22.9911 27.6365 25.0022 26.5508C26.3528 25.8214 25.6402 21.4776 25.0611 20.3446ZM24.4454 24.6124C24.4115 25.8529 24.1767 25.7891 23.0337 25.928C21.0318 26.1714 18.986 26.1654 16.9726 26.1581C15.5608 26.153 13.7109 26.3237 12.3445 25.9143C12.2152 25.8757 12.0909 25.9114 11.9968 25.986C12.1516 24.1466 12.2921 22.3067 12.4545 20.4679C16.1158 20.2342 19.6481 20.4197 23.312 20.5958C24.8539 20.6698 24.4709 23.6858 24.4454 24.6124Z" fill="black"/>
<path d="M20.9927 21.2114C19.771 21.0048 18.3898 21.2118 17.1587 21.2874C16.1821 21.3474 14.923 21.3593 14.0608 21.8774C13.9714 21.9311 14.0061 22.0803 14.115 22.0772C15.2557 22.0457 16.3919 21.9265 17.5352 21.9028C18.6646 21.8791 19.8794 22.0507 20.9928 21.862C21.316 21.8073 21.3162 21.2661 20.9927 21.2114Z" fill="black"/>
<path d="M20.851 22.7899C18.5673 22.4095 16.3064 23.2102 14.0165 22.5256C13.832 22.4706 13.7038 22.7581 13.8836 22.8412C15.9181 23.7829 18.5716 23.6316 20.7587 23.4733C21.1259 23.4466 21.2607 22.8582 20.851 22.7899Z" fill="black"/>
<path d="M23.111 23.6187C22.7962 23.7096 22.5219 23.8782 22.2033 23.9577C21.9794 24.0136 21.7357 24.015 21.5073 24.05C21.2055 24.0961 20.9605 24.254 20.7556 24.4592C20.6536 24.329 20.563 24.194 20.5205 24.0428C20.4431 23.7667 20.0132 23.6738 19.8764 23.9586C19.5819 24.5713 19.3502 25.1802 19.3623 25.8695C19.3679 26.188 19.807 26.1695 19.8436 25.8695C19.8832 25.5454 19.9811 25.2139 20.1232 24.9068C20.2117 25.0565 20.3048 25.2056 20.3853 25.3653C20.5449 25.6823 20.9551 25.606 21.1314 25.3653C21.4712 24.9021 21.7851 24.9466 22.2966 24.8697C22.8181 24.7915 23.2267 24.6071 23.5479 24.1874C23.7629 23.9066 23.4102 23.5321 23.111 23.6187Z" fill="black"/>
</svg>

